<svg xmlns="http://www.w3.org/2000/svg" viewBox="0 0 400 400">
  <defs>
    <linearGradient id="p1" x1="100" y1="60" x2="300" y2="340">
      <stop offset="0" stop-color="#F3ECD2"/>
      <stop offset="1" stop-color="#DCD2AA"/>
    </linearGradient>
    <linearGradient id="p2" x1="130" y1="80" x2="230" y2="180">
      <stop offset="0" stop-color="#7C8768"/>
      <stop offset="1" stop-color="#525E42"/>
    </linearGradient>
  </defs>
  <g transform="rotate(-8 160 260)">
    <path d="M160 140c34 0 56 56 56 106s-25 106-56 106-56-56-56-106 22-106 56-106Z" fill="url(#p1)" opacity="0.9"/>
    <path d="M160 140c22 0 37 28 42 54-12 12-27 18-42 18s-30-6-42-18c5-26 20-54 42-54Z" fill="url(#p2)" opacity="0.9"/>
  </g>
  <g transform="rotate(16 250 180)">
    <path d="M250 60c34 0 56 56 56 106s-25 106-56 106-56-56-56-106S216 60 250 60Z" fill="url(#p1)"/>
    <path d="M250 60c22 0 37 28 42 54-12 12-27 18-42 18s-30-6-42-18c5-26 20-54 42-54Z" fill="url(#p2)"/>
  </g>
</svg>
